<svg width="80" height="80" fill="none" xmlns="http://www.w3.org/2000/svg"><rect opacity=".15" width="80" height="80" rx="25" fill="#FFC201"/><g clip-path="url(#clip0)"><path d="M60.788 23.522H20.224c-1.14 0-2.064.924-2.064 2.064v37.217c0 1.14.925 2.064 2.064 2.064h40.564a2.065 2.065 0 002.064-2.064V25.585a2.064 2.064 0 00-2.064-2.063z" fill="#FF9102"/><path d="M58.116 51.934H22.894a2.064 2.064 0 01-2.064-2.064V16.986c0-1.14.924-2.064 2.064-2.064h35.222c1.14 0 2.064.925 2.064 2.064V49.87c0 1.14-.924 2.064-2.064 2.064z" fill="url(#paint0_linear)"/><path d="M21.483 50.523V17.64c0-1.14.924-2.064 2.064-2.064H58.77c.402 0 .776.117 1.094.316a2.06 2.06 0 00-1.748-.97H22.894c-1.14 0-2.064.925-2.064 2.064V49.87c0 .737.388 1.383.97 1.748a2.05 2.05 0 01-.317-1.095z" fill="url(#paint1_linear)"/><path d="M53.783 21.87H27.228v1.514h26.555V21.87zm0 5.779H27.228v1.513h26.555V27.65zm0 5.779H27.228v1.514h26.555v-1.514zm0 5.779H27.228v1.513h26.555v-1.513z" fill="#C2CECE"/><path d="M30.393 34.322l6.673 6.673h-6.673v-6.673z" fill="url(#paint2_linear)"/><path d="M62.851 41.546V26.192l-2.67-2.67v18.024h2.67z" fill="url(#paint3_linear)"/><path d="M65.98 42.935l-2.878 20.367a2.064 2.064 0 01-2.043 1.776H19.953c-1.028 0-1.9-.758-2.043-1.776l-3.89-27.521a2.064 2.064 0 012.044-2.353h12.694c1.028 0 1.9.757 2.043 1.775l.51 3.604a2.064 2.064 0 002.044 1.775h30.58a2.064 2.064 0 012.044 2.353z" fill="url(#paint4_linear)"/><path d="M55.785 55.992H25.227a.688.688 0 01-.683-.601l-.382-3.027a.688.688 0 01.683-.774h31.323c.414 0 .734.363.682.774l-.382 3.027a.688.688 0 01-.683.602z" fill="url(#paint5_linear)"/></g><defs><linearGradient id="paint0_linear" x1="24.878" y1="17.799" x2="65.896" y2="58.817" gradientUnits="userSpaceOnUse"><stop stop-color="#fff"/><stop offset="1" stop-color="#E8EFEE"/></linearGradient><linearGradient id="paint1_linear" x1="41.715" y1="34.636" x2="15.615" y2="8.536" gradientUnits="userSpaceOnUse"><stop stop-color="#fff"/><stop offset="1" stop-color="#E8EFEE"/></linearGradient><linearGradient id="paint2_linear" x1="34.802" y1="42.066" x2="26.736" y2="34.001" gradientUnits="userSpaceOnUse"><stop stop-color="#C2CECE" stop-opacity="0"/><stop offset=".179" stop-color="#AFBCBC" stop-opacity=".179"/><stop offset="1" stop-color="#5B6A6A"/></linearGradient><linearGradient id="paint3_linear" x1="72.569" y1="44.92" x2="54.465" y2="26.816" gradientUnits="userSpaceOnUse"><stop stop-color="#FFC200" stop-opacity="0"/><stop offset=".161" stop-color="#FDBB00" stop-opacity=".161"/><stop offset=".397" stop-color="#F7A700" stop-opacity=".397"/><stop offset=".678" stop-color="#EE8700" stop-opacity=".678"/><stop offset=".992" stop-color="#E05B00" stop-opacity=".992"/><stop offset="1" stop-color="#E05A00"/></linearGradient><linearGradient id="paint4_linear" x1="40.001" y1="61.751" x2="40.001" y2="64.673" gradientUnits="userSpaceOnUse"><stop stop-color="#FFC200"/><stop offset=".268" stop-color="#FB0"/><stop offset=".659" stop-color="#FFA801"/><stop offset="1" stop-color="#FF9102"/></linearGradient><linearGradient id="paint5_linear" x1="40.507" y1="58.555" x2="40.507" y2="55.143" gradientUnits="userSpaceOnUse"><stop stop-color="#FF9102"/><stop offset=".128" stop-color="#FF9409"/><stop offset=".314" stop-color="#FF9C1D"/><stop offset=".537" stop-color="#FFAA3D"/><stop offset=".785" stop-color="#FFBC69"/><stop offset="1" stop-color="#FFCF95"/></linearGradient><clipPath id="clip0"><path fill="#fff" transform="translate(14 14)" d="M0 0h52v52H0z"/></clipPath></defs></svg>